# xmcd CD database file
#
# Track frame offsets:
#	150
#	21435
#	36177
#	60702
#	79970
#	121320
#	144237
#	163502
#	185107
#
# Disc length: 2941 seconds
#
# Revision: 1
# Processed by: cddbd v1.5.2PL0 Copyright (c) Steve Scherf et al.
# Submitted via: CDex 1.70beta3
#
DISCID=7a0b7b09
DTITLE=UNITED - NINE
DYEAR=2005
DGENRE=J-Loud
TTITLE0=KILL YOUR SENSE
TTITLE1=DEATHTRAP
TTITLE2=UNDERSEA SUFFERING
TTITLE3=THE SYSTEM OF TERROR
TTITLE4=TEARS
TTITLE5=BREEDING FEAR
TTITLE6=LAND OF BLOOD
TTITLE7=RETURN
TTITLE8=WELCOME TO MY PAIN
EXTD=YEAR: 2005
EXTT0=
EXTT1=
EXTT2=
EXTT3=
EXTT4=
EXTT5=
EXTT6=
EXTT7=
EXTT8=
PLAYORDER=
